<svg width="32" height="33" viewBox="0 0 32 33" fill="none" xmlns="http://www.w3.org/2000/svg">
<path d="M17.9917 16.4338C21.1546 15.5553 23.4853 12.6633 23.4853 9.23192C23.4853 5.10647 20.1207 1.75 15.9852 1.75C11.8498 1.75 8.48518 5.10647 8.48518 9.23192C8.48518 12.6633 10.8159 15.5553 13.9788 16.4338C6.76421 17.3397 1.02979 23.057 0.124706 30.2543C-0.0131123 31.3503 0.895546 32.25 2.00012 32.25H3.19712H28.7731H30.0962C31.1503 32.25 32.0397 31.4279 31.9673 30.3763C31.4648 23.0765 25.2508 17.3454 17.9917 16.4338Z" fill="#CA61DB"/>
<path d="M18.3684 25.3017L16.6138 27.1767C16.5281 27.2688 16.4261 27.3419 16.3139 27.3917C16.2016 27.4416 16.0813 27.4672 15.9597 27.4672C15.8381 27.4672 15.7178 27.4416 15.6055 27.3917C15.4932 27.3419 15.3913 27.2688 15.3055 27.1767L13.5409 25.3017C13.4172 25.1764 13.3289 25.0166 13.2859 24.8404C13.2429 24.6641 13.2469 24.4786 13.2975 24.3047L14.6869 18.4955C14.7306 18.3264 14.8244 18.177 14.9542 18.0695C15.084 17.9621 15.2428 17.9024 15.407 17.8994H16.482C16.647 17.8988 16.8075 17.9571 16.938 18.0651C17.0684 18.1731 17.1614 18.3246 17.2021 18.4955L18.5915 24.3047C18.6434 24.4767 18.65 24.6608 18.6107 24.8366C18.5713 25.0125 18.4875 25.1734 18.3684 25.3017Z" fill="white"/>
<path d="M18.3684 25.3017L16.6138 27.1767C16.5281 27.2688 16.4261 27.3419 16.3139 27.3917C16.2016 27.4416 16.0813 27.4672 15.9597 27.4672C15.8381 27.4672 15.7178 27.4416 15.6055 27.3917C15.4932 27.3419 15.3913 27.2688 15.3055 27.1767L13.5409 25.3017C13.4172 25.1764 13.3289 25.0166 13.2859 24.8404C13.2429 24.6641 13.2469 24.4786 13.2975 24.3047L14.6869 18.4955C14.7306 18.3264 14.8244 18.177 14.9542 18.0695C15.084 17.9621 15.2428 17.9024 15.407 17.8994H16.482C16.647 17.8988 16.8075 17.9571 16.938 18.0651C17.0684 18.1731 17.1614 18.3246 17.2021 18.4955L18.5915 24.3047C18.6434 24.4767 18.65 24.6608 18.6107 24.8366C18.5713 25.0125 18.4875 25.1734 18.3684 25.3017Z" fill="white"/>
</svg>
