<svg width="32" height="32" viewBox="0 0 32 32" fill="none" xmlns="http://www.w3.org/2000/svg">
<path fill-rule="evenodd" clip-rule="evenodd" d="M2.875 0C1.83947 0 1 0.895433 1 2.00001V20.5165V22.3348V27.9997L4.43176 31.9505C4.47103 31.9957 4.53534 32.0036 4.58325 31.9692L8.50001 29.1509L11.933 31.974C11.973 32.0069 12.0283 32.0087 12.0701 31.9786L16 29.1509L19.9299 31.9786C19.9718 32.0087 20.027 32.0069 20.067 31.974L23.5 29.1509L26.9208 31.9639C26.9664 32.0014 27.0309 31.998 27.0728 31.9558L31 27.9997V22.3348V20.5165V2.00001C31 0.895433 30.1605 0 29.125 0H2.875Z" fill="#886AE5"/>
<path fill-rule="evenodd" clip-rule="evenodd" d="M16.502 10.4421C16.502 9.92437 16.9217 9.50464 17.4395 9.50464H23.868C24.3858 9.50464 24.8055 9.92437 24.8055 10.4421C24.8055 10.9599 24.3858 11.3796 23.868 11.3796H17.4395C16.9217 11.3796 16.502 10.9599 16.502 10.4421Z" fill="white"/>
<path fill-rule="evenodd" clip-rule="evenodd" d="M16.502 17.6406C16.502 17.1229 16.9217 16.7031 17.4395 16.7031H23.868C24.3858 16.7031 24.8055 17.1229 24.8055 17.6406C24.8055 18.1584 24.3858 18.5781 23.868 18.5781H17.4395C16.9217 18.5781 16.502 18.1584 16.502 17.6406Z" fill="white"/>
<path fill-rule="evenodd" clip-rule="evenodd" d="M13.8548 7.21048C14.2526 7.54195 14.3063 8.1331 13.9749 8.53086L10.4034 12.8166C10.2209 13.0357 9.94848 13.1597 9.66335 13.1537C9.37822 13.1476 9.11134 13.0121 8.93822 12.7855L7.15251 10.4478C6.8382 10.0364 6.91696 9.44804 7.32841 9.13373C7.73986 8.81943 8.32821 8.89818 8.64251 9.30964L9.71509 10.7137L12.5344 7.33051C12.8659 6.93276 13.4571 6.87901 13.8548 7.21048Z" fill="white"/>
<path fill-rule="evenodd" clip-rule="evenodd" d="M13.8548 14.7105C14.2526 15.0419 14.3063 15.6331 13.9749 16.0309L10.4034 20.3166C10.2209 20.5357 9.94848 20.6597 9.66335 20.6537C9.37822 20.6476 9.11134 20.5121 8.93822 20.2855L7.15251 17.9478C6.8382 17.5364 6.91696 16.948 7.32841 16.6337C7.73986 16.3194 8.32821 16.3982 8.64251 16.8096L9.71509 18.2137L12.5344 14.8305C12.8659 14.4328 13.4571 14.379 13.8548 14.7105Z" fill="white"/>
</svg>
