<svg width="32" height="32" viewBox="0 0 32 32" fill="none" xmlns="http://www.w3.org/2000/svg">
<g clip-path="url(#clip0_2_2019)">
<path d="M2 6.50587C2 5.40028 2.7835 4.50403 3.75 4.50403H28.25C29.2165 4.50403 30 5.40028 30 6.50587V30.0275C30 31.1331 29.2165 32.0293 28.25 32.0293H3.75C2.7835 32.0293 2 31.1331 2 30.0275V6.50587Z" fill="#2684FF"/>
<path d="M25.1663 9.15126V0.237743C25.1663 0.137022 25.0533 0.0775856 24.9703 0.134618L22.7359 1.66963L20.5461 0.0556365C20.5014 0.0226592 20.4402 0.0231532 20.396 0.0568492L18.2803 1.66963L16.0435 0.0531281C15.9996 0.0214322 15.9404 0.0215241 15.8966 0.0533556L13.6747 1.66963L11.3671 0.0544145C11.3211 0.0222385 11.2593 0.024601 11.216 0.0601946L9.15904 1.74807L7.06464 0.153011C6.98228 0.0902865 6.86372 0.149021 6.86372 0.252547V8.5793V9.15126H25.1663Z" fill="#91C5F9"/>
<path d="M6.86324 12.4757C6.86324 12.3375 6.97527 12.2255 7.11347 12.2255H24.9155C25.0537 12.2255 25.1658 12.3375 25.1658 12.4757V16.5509C25.1658 16.6891 25.0537 16.8011 24.9155 16.8011H7.11347C6.97527 16.8011 6.86324 16.6891 6.86324 16.5509V12.4757Z" fill="white"/>
<path d="M6.86324 20.3579C6.86324 20.2888 6.91925 20.2328 6.98835 20.2328H11.3138C11.3829 20.2328 11.4389 20.2888 11.4389 20.3579V22.3955C11.4389 22.4646 11.3829 22.5206 11.3138 22.5206H6.98835C6.91925 22.5206 6.86324 22.4646 6.86324 22.3955V20.3579Z" fill="white"/>
<path d="M13.727 20.3579C13.727 20.2888 13.783 20.2328 13.8521 20.2328H18.1775C18.2466 20.2328 18.3026 20.2888 18.3026 20.3579V22.3955C18.3026 22.4646 18.2466 22.5206 18.1775 22.5206H13.8521C13.783 22.5206 13.727 22.4646 13.727 22.3955V20.3579Z" fill="white"/>
<path d="M20.5902 20.3579C20.5902 20.2888 20.6462 20.2328 20.7153 20.2328H25.0407C25.1098 20.2328 25.1658 20.2888 25.1658 20.3579V22.3955C25.1658 22.4646 25.1098 22.5206 25.0407 22.5206H20.7153C20.6462 22.5206 20.5902 22.4646 20.5902 22.3955V20.3579Z" fill="white"/>
<path d="M6.86324 24.9336C6.86324 24.8645 6.91925 24.8085 6.98835 24.8085H11.3138C11.3829 24.8085 11.4389 24.8645 11.4389 24.9336V26.9712C11.4389 27.0403 11.3829 27.0963 11.3138 27.0963H6.98835C6.91925 27.0963 6.86324 27.0403 6.86324 26.9712V24.9336Z" fill="white"/>
<path d="M13.727 24.9336C13.727 24.8645 13.783 24.8085 13.8521 24.8085H18.1775C18.2466 24.8085 18.3026 24.8645 18.3026 24.9336V26.9712C18.3026 27.0403 18.2466 27.0963 18.1775 27.0963H13.8521C13.783 27.0963 13.727 27.0403 13.727 26.9712V24.9336Z" fill="white"/>
<path d="M20.5902 24.9336C20.5902 24.8645 20.6462 24.8085 20.7153 24.8085H25.0407C25.1098 24.8085 25.1658 24.8645 25.1658 24.9336V26.9712C25.1658 27.0403 25.1098 27.0963 25.0407 27.0963H20.7153C20.6462 27.0963 20.5902 27.0403 20.5902 26.9712V24.9336Z" fill="white"/>
</g>
<defs>
<clipPath id="clip0_2_2019">
<rect width="32" height="32" fill="white"/>
</clipPath>
</defs>
</svg>
