<svg width="32" height="32" viewBox="0 0 32 32" fill="none" xmlns="http://www.w3.org/2000/svg">
<path fill-rule="evenodd" clip-rule="evenodd" d="M11.5761 7.12746L8.57726 1.70652C8.15329 0.940111 8.7076 0 9.58346 0H22.5044C23.3802 0 23.9345 0.940115 23.5106 1.70652L20.5117 7.12746C20.3333 7.45006 20.0128 7.66482 19.6529 7.71127H21.8262C24.6298 8.7673 30.7626 12.9914 30.7626 20.3836C30.7626 24.6078 28.4496 32 21.3006 32H16.0439L10.7872 32C3.63813 32 1.3252 24.6078 1.3252 20.3837C1.3252 12.9914 7.45798 8.76731 10.2615 7.71128L12.4349 7.71127C12.075 7.66482 11.7545 7.45006 11.5761 7.12746Z" fill="#E09234"/>
<path d="M10.2942 6.11096H21.7931V7.72082H10.2942V6.11096Z" fill="#BB5D48"/>
<path fill-rule="evenodd" clip-rule="evenodd" d="M14.4214 15.9444C14.4214 14.9385 13.6102 14.1273 12.6043 14.1273C11.5984 14.1273 10.7872 14.9385 10.7872 15.9444C10.7872 16.9503 11.5984 17.7616 12.6043 17.7616C13.6102 17.7616 14.4214 16.9503 14.4214 15.9444ZM17.6663 22.8235C17.6663 23.8295 18.4775 24.6407 19.4834 24.6407C20.4893 24.6407 21.3005 23.8295 21.3005 22.8235C21.3005 21.8176 20.4893 21.0064 19.4834 21.0064C18.4775 21.0064 17.6663 21.8176 17.6663 22.8235ZM19.8255 14.2388C19.7804 14.194 19.7076 14.1942 19.6629 14.2393L11.0028 22.949C10.958 22.9941 10.9582 23.0669 11.0033 23.1116L12.3312 24.432C12.3763 24.4768 12.4491 24.4766 12.4939 24.4316L21.1539 15.7218C21.1987 15.6768 21.1985 15.604 21.1534 15.5592L19.8255 14.2388Z" fill="white"/>
</svg>
