<svg width="16" height="16" viewBox="0 0 16 16" fill="none" xmlns="http://www.w3.org/2000/svg">
<path d="M8.00832 1.5C8.49764 1.50564 8.98505 1.56217 9.46266 1.66869C9.67116 1.71519 9.82708 1.88901 9.85075 2.10131L9.96422 3.1192C10.0156 3.58657 10.4102 3.94056 10.8806 3.94105C11.0071 3.94125 11.1322 3.91492 11.249 3.86322L12.1827 3.45304C12.377 3.36773 12.6038 3.41424 12.7488 3.56908C13.4236 4.28976 13.9262 5.1541 14.2187 6.09705C14.2817 6.30039 14.2091 6.52136 14.0378 6.64767L13.2101 7.25773C12.974 7.43119 12.8346 7.70667 12.8346 7.99964C12.8346 8.2926 12.974 8.56808 13.2106 8.74193L14.039 9.3522C14.2104 9.47849 14.2831 9.69949 14.22 9.90286C13.9276 10.8457 13.4254 11.7099 12.751 12.4307C12.6061 12.5855 12.3794 12.6322 12.1852 12.5471L11.2476 12.1363C10.9794 12.019 10.6714 12.0362 10.4179 12.1826C10.1644 12.3291 9.99572 12.5875 9.96351 12.8785L9.85079 13.8963C9.82755 14.1061 9.67497 14.2788 9.46956 14.3277C8.50392 14.5574 7.49786 14.5574 6.53223 14.3277C6.32681 14.2788 6.17424 14.1061 6.15099 13.8963L6.03845 12.88C6.00539 12.5895 5.83643 12.332 5.58316 12.186C5.32988 12.04 5.02234 12.0229 4.75501 12.1396L3.81726 12.5504C3.62302 12.6355 3.39623 12.5888 3.25139 12.434C2.57662 11.7123 2.07434 10.847 1.78234 9.9032C1.71945 9.69991 1.79211 9.47908 1.96344 9.35287L2.79232 8.74221C3.02842 8.56875 3.16786 8.29327 3.16786 8.0003C3.16786 7.70734 3.02842 7.43186 2.79202 7.25817L1.96365 6.64856C1.79207 6.5223 1.71934 6.30119 1.78245 6.09772C2.07495 5.15477 2.5775 4.29043 3.25229 3.56974C3.39727 3.41491 3.62416 3.36839 3.81837 3.45371L4.75195 3.86382C5.02058 3.9817 5.32941 3.9639 5.58405 3.81513C5.8376 3.66806 6.0064 3.40948 6.03898 3.11843L6.15237 2.10131C6.17605 1.8889 6.33211 1.71503 6.54074 1.66863C7.01892 1.56228 7.50684 1.50577 8.00832 1.5ZM8.00845 2.49993C7.70575 2.5035 7.40391 2.52962 7.10542 2.57801L7.0328 3.22946C6.96492 3.83578 6.61356 4.37401 6.08715 4.67935C5.55752 4.98878 4.91178 5.02602 4.34993 4.77944L3.75107 4.51637C3.36978 4.97915 3.0663 5.5009 2.85255 6.06112L3.38442 6.45253C3.87696 6.81441 4.16786 7.38911 4.16786 8.0003C4.16786 8.6115 3.87696 9.1862 3.38494 9.5477L2.85224 9.94015C3.0658 10.5014 3.36932 11.0241 3.75087 11.4878L4.35429 11.2234C4.91302 10.9794 5.55437 11.0152 6.08256 11.3196C6.61075 11.6241 6.96309 12.1612 7.0322 12.7684L7.10484 13.4243C7.69794 13.5252 8.30385 13.5252 8.89694 13.4243L8.96958 12.7684C9.03678 12.1614 9.38871 11.6225 9.91753 11.3168C10.4463 11.0112 11.089 10.9754 11.6487 11.2203L12.2517 11.4845C12.6329 11.0215 12.9363 10.4996 13.15 9.93932L12.618 9.54741C12.1255 9.18553 11.8346 8.61083 11.8346 7.99964C11.8346 7.38845 12.1255 6.81374 12.6174 6.45232L13.1487 6.06073C12.9349 5.50041 12.6314 4.97856 12.25 4.51571L11.6524 4.77824C11.4088 4.886 11.1454 4.94147 10.8793 4.94105C9.89953 4.94003 9.07723 4.20237 8.97029 3.22922L8.89767 2.5778C8.60065 2.52946 8.30196 2.50341 8.00845 2.49993ZM8 5.49997C9.38072 5.49997 10.5 6.61925 10.5 7.99997C10.5 9.38068 9.38072 10.5 8 10.5C6.61929 10.5 5.5 9.38068 5.5 7.99997C5.5 6.61925 6.61929 5.49997 8 5.49997ZM8 6.49997C7.17158 6.49997 6.5 7.17154 6.5 7.99997C6.5 8.82839 7.17158 9.49997 8 9.49997C8.82843 9.49997 9.5 8.82839 9.5 7.99997C9.5 7.17154 8.82843 6.49997 8 6.49997Z" fill="#1C1C1C"/>
</svg>
