<svg width="33" height="32" viewBox="0 0 33 32" fill="none" xmlns="http://www.w3.org/2000/svg">
<path fill-rule="evenodd" clip-rule="evenodd" d="M24.4124 7.40438C24.4124 7.53982 24.3812 7.66955 24.3239 7.79047L29.1662 16.8869L29.1301 16.88L29.0659 16.8682C30.9086 18.3966 32.134 21.0688 32.1489 24.1091C31.584 20.9651 28.7461 18.562 25.3139 18.562C24.0584 18.562 22.8995 18.9033 21.8855 19.4772C20.0347 20.5003 18.7082 22.3121 18.4419 24.4513L14.7171 24.4411L14.7172 24.465H11.5613C11.7293 24.9618 11.8215 25.4941 11.8238 26.0472C11.8238 26.7683 11.6662 27.4435 11.396 28.0501C10.6418 29.7782 8.94187 30.9799 6.97181 30.9799C4.30379 30.9799 2.13109 28.7825 2.13109 26.0587C2.13109 25.4994 2.2235 24.9636 2.39325 24.465H0.228765C0.228765 21.7455 1.29136 19.3452 2.93323 17.7692L0.391655 12.7394C-0.293453 11.3764 0.552857 9.67545 1.913 9.67545H12.1292C12.905 9.67545 13.58 10.258 13.8117 11.0968L15.2122 15.8151C15.454 16.6655 16.129 17.2364 16.8947 17.2364H17.4186C18.547 17.2364 19.3833 16.0248 19.1314 14.7433L17.7813 7.62503C17.7363 7.40697 17.724 7.19028 17.7402 6.98093H14.427C13.8867 6.98093 13.4476 6.53459 13.4476 5.98524C13.4476 5.43589 13.8867 4.98955 14.427 4.98955H18.312C18.9222 4.11112 20.4315 3.41173 22.3523 3.12404C23.4105 2.96382 24.4124 3.5475 24.4124 4.3143V7.40438ZM23.0042 21.8012C23.7134 21.3778 24.524 21.126 25.402 21.126C28.0813 21.126 30.2428 23.3348 30.254 26.0472C30.254 26.7683 30.0964 27.4435 29.8262 28.0501C29.072 29.7782 27.3721 30.9799 25.402 30.9799C22.734 30.9799 20.5613 28.7825 20.5613 26.0587C20.5613 24.2275 21.552 22.6482 23.0042 21.8012Z" fill="#2BC477"/>
</svg>
