<svg width="32" height="32" viewBox="0 0 32 32" fill="none" xmlns="http://www.w3.org/2000/svg">
<path fill-rule="evenodd" clip-rule="evenodd" d="M2.875 0C1.83947 0 1 0.896653 1 2.00273V23.2818C1 24.3878 1.83947 25.2845 2.875 25.2845H6.35718V31.8746C6.35718 31.9765 6.46511 32.0357 6.54265 31.9763L15.2808 25.2845H29.125C30.1605 25.2845 31 24.3878 31 23.2818V2.00273C31 0.896654 30.1605 0 29.125 0H2.875Z" fill="#E56B79"/>
<path d="M16.5321 5.33768L18.2259 8.71453C18.3151 8.88963 18.4806 9.0147 18.6844 9.03971L22.4797 9.57751C22.9764 9.65255 23.1801 10.2529 22.8108 10.5906L20.0726 13.217C19.9325 13.3546 19.8688 13.5547 19.8943 13.7423L20.5438 17.4443C20.633 17.9321 20.1108 18.3073 19.6651 18.0697L16.2774 16.3187C16.0991 16.2312 15.8953 16.2312 15.717 16.3187L12.3293 18.0697C11.8835 18.2948 11.3614 17.9321 11.4505 17.4443L12.1 13.7423C12.1383 13.5547 12.0746 13.3546 11.9217 13.217L9.18356 10.5906C8.82696 10.2404 9.018 9.65255 9.51469 9.57751L13.3099 9.03971C13.501 9.0147 13.6793 8.88963 13.7684 8.71453L15.4623 5.33768C15.666 4.88744 16.3028 4.88744 16.5321 5.33768Z" fill="white"/>
</svg>
