<svg width="32" height="32" viewBox="0 0 32 32" fill="none" xmlns="http://www.w3.org/2000/svg">
<path d="M1 2C1 0.895431 1.83947 0 2.875 0H29.125C30.1605 0 31 0.895431 31 2V30C31 31.1046 30.1605 32 29.125 32H2.875C1.83947 32 1 31.1046 1 30V2Z" fill="#05BBC6"/>
<path fill-rule="evenodd" clip-rule="evenodd" d="M31 24.5H27.8096L6.88281 24.5C6.10616 24.5 5.47656 25.1296 5.47656 25.9063C5.47656 26.6829 6.10616 27.3125 6.88281 27.3125H29.5937C29.5957 27.3125 29.5976 27.3125 29.5995 27.3125H31V24.5Z" fill="white"/>
<path fill-rule="evenodd" clip-rule="evenodd" d="M10.6089 8.31274C11.1007 8.15068 11.6307 8.41796 11.7927 8.90971L13.4512 13.9422L15.1096 8.90971C15.2363 8.52534 15.5953 8.26563 16 8.26563C16.4047 8.26563 16.7637 8.52534 16.8904 8.90971L18.5488 13.9422L20.2073 8.90971C20.3693 8.41796 20.8993 8.15068 21.3911 8.31274C21.8828 8.47479 22.1501 9.00481 21.9881 9.49656L21.2609 11.7031H22.7969C23.3146 11.7031 23.7344 12.1228 23.7344 12.6406C23.7344 13.1583 23.3146 13.5781 22.7969 13.5781H20.643L19.4392 17.2309C19.3126 17.6153 18.9535 17.875 18.5488 17.875C18.1441 17.875 17.7851 17.6153 17.6584 17.2309L16 12.1985L14.3416 17.2309C14.2149 17.6153 13.8559 17.875 13.4512 17.875C13.0465 17.875 12.6874 17.6153 12.5608 17.2309L11.357 13.5781H9.20312C8.68536 13.5781 8.26562 13.1583 8.26562 12.6406C8.26562 12.1228 8.68536 11.7031 9.20312 11.7031H10.7391L10.0119 9.49656C9.84989 9.00481 10.1172 8.47479 10.6089 8.31274Z" fill="white"/>
</svg>
